<?xml version="1.0" encoding="utf-8"?><!-- Uploaded to: SVG Repo, www.svgrepo.com, Generator: SVG Repo Mixer Tools -->
<svg fill="#000000" width="800px" height="800px" viewBox="0 0 24 24" id="canned-food-4" data-name="Flat Line" xmlns="http://www.w3.org/2000/svg" class="icon flat-line"><path id="secondary" d="M18.53,13A12.83,12.83,0,0,0,19,9.5C19,5.91,17.66,3,16,3s-3,2.91-3,6.5a12.83,12.83,0,0,0,.47,3.5Z" style="fill: rgb(44, 169, 188); stroke-width: 2;"></path><path id="primary" d="M13.47,13A12.83,12.83,0,0,1,13,9.5C13,5.91,14.34,3,16,3s3,2.91,3,6.5a12.83,12.83,0,0,1-.47,3.5ZM20,20V14a1,1,0,0,0-1-1H5a1,1,0,0,0-1,1v6a1,1,0,0,0,1,1H19A1,1,0,0,0,20,20Z" style="fill: none; stroke: rgb(0, 0, 0); stroke-linecap: round; stroke-linejoin: round; stroke-width: 2;"></path></svg>